<svg width="90" height="90" viewBox="0 0 74 75" fill="none" xmlns="http://www.w3.org/2000/svg">
<path d="M3.39927 22.7488L9.23948 24.6145L8.3329 27.4503L4.08249 28.8693L7.52924 29.9708L6.83508 32.1409L0.992676 30.2751L1.89925 27.4393L6.14967 26.0203L2.70291 24.9189L3.39708 22.7488H3.39927Z" fill="black"/>
<path d="M6.5789 23.132C4.7745 22.0042 4.52706 20.4845 5.957 18.1983C7.38256 15.9187 8.86944 15.4742 10.6651 16.5998C12.4695 17.7275 12.7279 19.2648 11.3023 21.5444C9.87237 23.8305 8.38987 24.2685 6.5789 23.1341V23.132ZM9.4585 18.529C8.91543 18.1896 8.30666 18.0757 7.59059 19.2188C6.87453 20.3619 7.23804 20.8568 7.78549 21.2006C8.3417 21.5487 8.95703 21.656 9.66872 20.5195C10.3804 19.383 10.0081 18.8728 9.4585 18.529Z" fill="black"/>
<path d="M15.5942 10.1464L13.7132 11.9815L16.6475 14.9925L15.0161 16.5823L12.0818 13.5713L10.2007 15.4063L8.8562 14.0268L14.2497 8.76904L15.5942 10.1486V10.1464Z" fill="black"/>
<path d="M18.2002 8.30483L18.4958 8.79097L22.0827 6.60117L22.8579 7.87125L19.271 10.0611L19.5667 10.5472L23.1536 8.35739L24.0667 9.85303L18.5353 13.2297L15.3403 7.99826L20.8718 4.62158L21.7849 6.11722L18.198 8.30702L18.2002 8.30483Z" fill="black"/>
<path d="M25.4004 7.07631C25.4924 7.3588 25.823 7.46391 27.196 7.01062C28.4771 6.59018 28.6413 6.44346 28.569 6.22667C28.4858 5.97703 28.2844 6.00769 26.907 6.4128C24.2507 7.19456 23.1011 7.09383 22.6544 5.73615C22.2339 4.45512 23.3091 3.4916 25.604 2.73831C27.8749 1.99159 29.3377 2.11859 29.8282 3.60766L27.6646 4.31935C27.5639 4.01059 27.0427 4.10913 25.9851 4.45731C24.9712 4.79016 24.7785 4.90841 24.8529 5.13396C24.9274 5.35951 25.1332 5.28286 26.4121 4.91498C28.7376 4.25146 30.2136 3.94051 30.715 5.46462C31.2428 7.06974 30.0471 7.91501 27.6581 8.70115C25.2712 9.48729 23.804 9.51576 23.2347 7.78581L25.3982 7.07412L25.4004 7.07631Z" fill="black"/>
<path d="M42.2224 3.04709L39.5968 2.95293L39.4479 7.15516L37.1727 7.07414L37.3216 2.87191L34.696 2.77774L34.7639 0.852905L42.2925 1.12006L42.2246 3.0449L42.2224 3.04709Z" fill="black"/>
<path d="M42.6801 4.2405C43.2604 2.19303 44.6488 1.52952 47.2437 2.2653C49.8299 2.99669 50.6729 4.30182 50.0948 6.34052C49.5145 8.38799 48.113 9.06464 45.5247 8.33325C42.9298 7.59747 42.0955 6.29673 42.6779 4.2405H42.6801ZM47.905 5.71862C48.078 5.10328 48.0167 4.48576 46.7203 4.11787C45.4218 3.74999 45.0495 4.23612 44.8721 4.86022C44.6926 5.49307 44.7626 6.11278 46.0524 6.47848C47.3422 6.84418 47.7298 6.34271 47.905 5.72081V5.71862Z" fill="black"/>
<path d="M55.2626 10.3062C55.0852 10.5471 55.1925 10.8756 56.3575 11.7296C57.4437 12.5289 57.6583 12.5771 57.794 12.3931C57.9495 12.1807 57.8072 12.034 56.675 11.1471C54.4962 9.4369 53.9115 8.44273 54.7568 7.29308C55.556 6.20475 56.9641 6.52227 58.913 7.9544C60.84 9.3712 61.5868 10.6347 60.6583 11.8982L58.8232 10.5493C59.0159 10.2887 58.6327 9.92085 57.7371 9.26171C56.8765 8.62886 56.6685 8.54127 56.5283 8.73178C56.3882 8.92229 56.5699 9.04492 57.6123 9.87486C59.5043 11.3836 60.6123 12.4041 59.6641 13.6961C58.6634 15.0581 57.2794 14.5742 55.2539 13.0873C53.2283 11.5982 52.3524 10.4223 53.4297 8.95514L55.2648 10.3041L55.2626 10.3062Z" fill="black"/>
<path d="M63.1765 14.2457L62.7451 14.6158L65.4824 17.8085L64.3524 18.7786L61.6152 15.5859L61.1838 15.956L63.921 19.1487L62.5918 20.2896L58.3743 15.3691L63.0298 11.3793L67.2474 16.2998L65.9181 17.4407L63.1809 14.2479L63.1765 14.2457Z" fill="black"/>
<path d="M67.2825 24.8794L65.5942 25.8057L62.5613 20.2764L67.9351 17.3268L69.03 19.3239L65.3445 21.3473L67.2825 24.8794V24.8794Z" fill="black"/>
<path d="M70.2672 26.7495L69.6388 26.94L70.703 30.4634L68.857 31.0196L67.7928 27.4962L66.2402 27.9649L65.5811 25.7838L71.4519 24.0101L73.3264 30.216L71.4804 30.7722L70.265 26.7473L70.2672 26.7495Z" fill="black"/>
<path d="M67.5496 48.7658C66.5686 48.5403 65.9182 47.7695 66.2314 46.4118L67.4883 40.9482L73.4643 42.3234L72.2665 47.5308C71.9533 48.8885 71.2439 49.1644 70.3373 48.9564C69.9541 48.8688 69.6015 48.5972 69.3278 48.2293C68.8329 48.6629 68.2 48.9126 67.5496 48.7637V48.7658ZM68.2307 46.5848C68.546 46.6571 68.6095 46.3833 68.6599 46.1622L69.2292 43.6855L68.5964 43.541L68.027 46.0176C67.9767 46.2388 67.9132 46.5125 68.2285 46.5848H68.2307ZM70.8519 44.06L70.3811 46.1096C70.3307 46.3308 70.2672 46.6045 70.5913 46.679C70.9154 46.7534 70.9789 46.4797 71.0293 46.2585L71.5001 44.2089L70.8519 44.06Z" fill="black"/>
<path d="M71.6294 50.233L70.46 52.5871L67.6965 53.0338L69.0126 55.5061L67.8432 57.8601L65.5439 53.2353L63.7395 52.3396L64.7534 50.2987L66.5578 51.1944L71.6316 50.233H71.6294Z" fill="black"/>
<path d="M53.3203 63.9237L55.0415 62.4302L56.9532 64.6332L56.305 61.3331L57.4306 60.3565L60.6058 61.4623L58.6941 59.2594L60.4131 57.7659L64.4314 62.3974L62.3138 64.2346L58.589 62.8288L59.4561 66.7157L57.3386 68.5529L53.3203 63.9215V63.9237Z" fill="black"/>
<path d="M48.8773 67.088L51.2489 65.9974L51.17 64.8193L53.4453 63.7726L53.7015 70.4033L50.6314 71.8179L45.7612 67.3113L48.0364 66.2646L48.8795 67.0923L48.8773 67.088ZM50.0773 68.2704L51.5051 69.6763L51.3649 67.677L50.0751 68.2704H50.0773Z" fill="black"/>
<path d="M40.2187 70.0135L38.8325 68.4785L41.4866 67.9902L42.5815 69.2493L43.8997 69.0062L43.6391 67.5938L45.8793 67.1821L46.9895 73.2129L42.253 74.0866C40.8844 74.3384 39.7676 73.5479 39.5201 72.2034C39.3581 71.3252 39.6296 70.526 40.2209 70.0157L40.2187 70.0135ZM44.2479 70.9004L42.1807 71.2814C41.9574 71.3231 41.6815 71.3734 41.7581 71.7873C41.8347 72.2012 42.1107 72.1508 42.334 72.1092L44.4012 71.7282L44.2479 70.9004V70.9004Z" fill="black"/>
<path d="M34.7925 74.496C32.3421 74.3647 31.1114 73.4384 31.1202 71.5004L33.4479 71.6252C33.5049 72.2077 33.9341 72.5208 34.8976 72.5712C36.2443 72.6435 36.5027 72.0873 36.5377 71.4391C36.5728 70.7821 36.3669 70.1931 35.029 70.1208C34.0676 70.0683 33.6056 70.342 33.4852 70.9245L31.1574 70.7997C31.3589 68.8639 32.6727 68.0646 35.1319 68.1982C37.8253 68.3427 38.9246 69.4288 38.8108 71.5639C38.6969 73.6902 37.4859 74.6428 34.7925 74.496V74.496Z" fill="black"/>
<path d="M30.5419 71.0471C29.9135 73.0815 28.5076 73.7099 25.9302 72.915C23.3594 72.1223 22.5491 70.7975 23.1754 68.7719C23.8039 66.7376 25.2229 66.0938 27.7915 66.8887C30.3689 67.6858 31.1726 69.0062 30.5397 71.0471H30.5419ZM25.3521 69.4442C25.1638 70.0552 25.2098 70.6749 26.4995 71.0734C27.7893 71.472 28.1747 70.9946 28.3653 70.3749C28.558 69.7464 28.5032 69.1245 27.2244 68.7281C25.9433 68.3318 25.5448 68.8245 25.3521 69.442V69.4442Z" fill="black"/>
<path d="M13.1769 62.9646C14.0025 61.8741 15.3558 61.6704 16.466 62.5113L18.4916 64.0441L19.3587 62.8989L21.1741 64.2741L17.4711 69.1617L13.6302 66.2515C12.52 65.4106 12.3514 64.0529 13.1769 62.9624V62.9646ZM14.9923 64.3398C14.7382 64.6748 14.9616 64.8434 15.1434 64.9814L16.8186 66.2515L17.3266 65.5814L15.6514 64.3113C15.4696 64.1733 15.2463 64.0047 14.9923 64.3398V64.3398Z" fill="black"/>
<path d="M13.166 62.0142C11.5192 63.3631 9.99952 63.1112 8.29147 61.0222C6.5878 58.9419 6.64474 57.3893 8.2849 56.0469C9.93164 54.7002 11.4689 54.9455 13.1725 57.028C14.8806 59.117 14.8193 60.6609 13.166 62.0142V62.0142ZM9.72798 57.8097C9.23309 58.2148 8.92871 58.7579 9.78492 59.8003C10.6389 60.8448 11.2236 60.6609 11.7251 60.2492C12.2331 59.8331 12.5309 59.2835 11.6835 58.2477C10.8338 57.2097 10.2316 57.3981 9.73017 57.8097H9.72798Z" fill="black"/>
<path d="M6.22862 49.2958L7.95419 48.4396L10.7571 54.0893L5.26511 56.8134L4.25342 54.7725L8.01988 52.9046L6.22862 49.2958V49.2958Z" fill="black"/>
<path d="M4.93877 49.3023C2.86721 49.7951 1.61246 48.906 0.986172 46.2826C0.362078 43.6658 1.08909 42.295 3.15189 41.8045C5.22344 41.3117 6.49791 42.2052 7.12201 44.8198C7.74829 47.4432 7.01908 48.8075 4.94096 49.3023H4.93877ZM3.67963 44.0205C3.05773 44.1694 2.5475 44.5242 2.86065 45.8359C3.17379 47.1476 3.78036 47.2374 4.41103 47.0863C5.05045 46.933 5.55849 46.5695 5.24753 45.2665C4.93658 43.9636 4.3103 43.8694 3.67963 44.0183V44.0205Z" fill="black"/>
<path d="M71.0949 37.8803C71.8919 37.8803 72.538 37.2342 72.538 36.4372C72.538 35.6402 71.8919 34.9941 71.0949 34.9941C70.2979 34.9941 69.6519 35.6402 69.6519 36.4372C69.6519 37.2342 70.2979 37.8803 71.0949 37.8803Z" fill="black"/>
<path d="M3.13009 37.8803C3.92708 37.8803 4.57317 37.2342 4.57317 36.4372C4.57317 35.6402 3.92708 34.9941 3.13009 34.9941C2.3331 34.9941 1.68701 35.6402 1.68701 36.4372C1.68701 37.2342 2.3331 37.8803 3.13009 37.8803Z" fill="black"/>
</svg>
